<mxfile host="app.diagrams.net" modified="2023-10-13T06:50:23.813Z" agent="Mozilla/5.0 (Windows NT 10.0; Win64; x64; rv:109.0) Gecko/20100101 Firefox/118.0" version="22.0.4" etag="ifSzCpSsuuyyIReVabtD" type="github">
  <diagram name="Page-1" id="lQw2WD26W0ZBlH2g-sCO">
    <mxGraphModel>
      <root>
        <mxCell id="0" />
        <mxCell id="1" parent="0" />
      </root>
    </mxGraphModel>
  </diagram>
</mxfile>
